<svg clip-rule="evenodd" fill-rule="evenodd" height="512" stroke-linejoin="round" stroke-miterlimit="2" viewBox="0 0 512 513" width="512" xmlns="http://www.w3.org/2000/svg"><g><g><path d="m430.047 280.891c0 7.26 5.885 13.145 13.144 13.145h7.153c16.352 0 32.035-6.496 43.597-18.059 11.563-11.563 18.059-27.245 18.059-43.597v-138.847c0-16.352-6.496-32.034-18.059-43.597-11.562-11.563-27.245-18.059-43.597-18.059h-314.657c-16.352 0-32.034 6.496-43.597 18.059s-18.059 27.245-18.059 43.597v12.635c0 7.259 5.885 13.144 13.145 13.144h289.714c14.098 0 27.618 5.601 37.587 15.57 9.969 9.968 15.57 23.489 15.57 37.587z" fill="#a6a6a6"/><path d="m235.592 373.549h-173.936c-16.352 0-32.035-6.496-43.597-18.059-11.563-11.563-18.059-27.245-18.059-43.598v-138.846c0-16.352 6.496-32.035 18.059-43.597 11.562-11.563 27.245-18.059 43.597-18.059h315.234c16.199 0 31.735 6.435 43.189 17.89 11.455 11.454 17.89 26.99 17.89 43.189v139.423c0 16.353-6.496 32.035-18.059 43.598s-27.245 18.059-43.597 18.059h-35.649l-104.189 103.743c-4.154 4.136-10.543 5.022-15.665 2.173s-7.739-8.745-6.415-14.455z" fill="#ccc"/></g></g></svg>