<svg id="Layer_1" enable-background="new 0 0 512 512" height="512" viewBox="0 0 512 512" width="512" xmlns="http://www.w3.org/2000/svg"><path d="m62.325 49.803c0-5.685 4.638-10.323 10.323-10.323 5.686 0 10.323 4.637 10.323 10.323s-4.637 10.323-10.323 10.323c-5.685 0-10.323-4.637-10.323-10.323zm49.948 10.323c5.685 0 10.322-4.637 10.322-10.323 0-5.685-4.637-10.323-10.322-10.323-5.686 0-10.323 4.637-10.323 10.323s4.637 10.323 10.323 10.323zm39.625 0c5.685 0 10.322-4.637 10.322-10.323 0-5.685-4.637-10.323-10.322-10.323-5.686 0-10.323 4.637-10.323 10.323s4.637 10.323 10.323 10.323zm352.102 94.263v287.966c0 14.15-11.512 25.663-25.663 25.663h-277.865l-14.501 14.501c-2.34 2.341-5.88 2.998-8.904 1.654l-11.836-5.257c-5.864 3.239-12.054 5.805-18.482 7.662l-4.65 12.079c-1.188 3.088-4.156 5.126-7.466 5.126h-25.971c-3.31 0-6.277-2.038-7.466-5.126l-4.651-12.083c-6.423-1.856-12.611-4.421-18.475-7.66l-11.842 5.26c-3.024 1.343-6.563.686-8.904-1.655l-18.364-18.365c-2.34-2.34-2.998-5.879-1.654-8.904l5.257-11.836c-3.239-5.864-5.804-12.053-7.662-18.482l-12.079-4.649c-3.089-1.188-5.126-4.156-5.126-7.466v-25.971c0-3.31 2.038-6.277 5.126-7.466l12.082-4.651c1.856-6.425 4.421-12.612 7.66-18.477l-3.883-8.744h-5.018c-14.151 0-25.663-11.512-25.663-25.663v-287.966c0-14.15 11.512-25.662 25.663-25.662h391.339c14.151 0 25.663 11.512 25.663 25.663v94.847h27.672c14.151-.001 25.663 11.511 25.663 25.662zm-25.663-9.663h-391.339c-5.328 0-9.663 4.334-9.663 9.663v41.511h410.665v-41.512c0-5.327-4.335-9.662-9.663-9.662zm-454.337-110.847v41.512h410.665v-41.512c0-5.328-4.335-9.663-9.663-9.663h-391.339c-5.329.001-9.663 4.335-9.663 9.663zm9.663 297.629h9.297l14.364-14.365c1.123-1.123 2.525-1.847 4.011-2.159v-160.595c0-14.15 11.512-25.663 25.663-25.663h347.667v-37.335h-410.665v230.454c0 5.328 4.334 9.663 9.663 9.663zm155.475 125.216-4.691-10.562c-1.071-2.411-.884-5.195.5-7.441 4.133-6.712 7.15-13.992 8.97-21.637.611-2.566 2.447-4.667 4.909-5.614l10.775-4.147v-14.985l-10.771-4.146c-2.462-.948-4.298-3.048-4.909-5.614-1.82-7.649-4.838-14.931-8.972-21.642-1.384-2.247-1.571-5.031-.5-7.443l4.688-10.556-10.596-10.596-10.562 4.691c-2.411 1.07-5.195.883-7.442-.5-6.711-4.133-13.991-7.151-21.637-8.971-2.566-.611-4.666-2.447-5.613-4.909l-4.147-10.774h-14.985l-4.148 10.774c-.948 2.461-3.047 4.298-5.613 4.909-7.645 1.82-14.925 4.838-21.636 8.971-2.248 1.383-5.03 1.57-7.442.5l-9.088-4.036c-.007-.003-.014-.006-.021-.01l-1.453-.645-10.597 10.597 4.69 10.56c1.071 2.411.884 5.195-.5 7.442-4.133 6.712-7.151 13.992-8.971 21.638-.611 2.566-2.447 4.667-4.909 5.614l-10.773 4.147v14.985l10.771 4.146c2.462.947 4.298 3.047 4.909 5.613 1.821 7.652 4.84 14.934 8.972 21.643 1.384 2.247 1.571 5.031.5 7.443l-4.688 10.556 10.597 10.597 10.562-4.691c2.41-1.071 5.195-.884 7.441.5 6.713 4.133 13.993 7.151 21.637 8.97 2.566.611 4.667 2.447 5.614 4.909l4.147 10.774h14.985l4.146-10.771c.947-2.461 3.048-4.298 5.614-4.909 7.651-1.821 14.932-4.839 21.642-8.972 2.247-1.384 5.031-1.571 7.443-.5l10.556 4.688zm298.862-14.37v-230.454h-410.665v108.521l.735.326c5.864-3.238 12.051-5.804 18.475-7.66l4.652-12.083c1.189-3.088 4.157-5.126 7.466-5.126h25.971c3.31 0 6.277 2.038 7.466 5.126l4.651 12.083c6.425 1.857 12.611 4.422 18.476 7.66l11.841-5.259c3.023-1.342 6.563-.686 8.904 1.655l18.365 18.364c2.34 2.34 2.998 5.879 1.654 8.904l-5.257 11.836c3.24 5.865 5.805 12.054 7.662 18.482l12.079 4.649c3.088 1.188 5.126 4.156 5.126 7.466v25.971c0 3.31-2.038 6.277-5.126 7.466l-12.083 4.651c-1.856 6.424-4.421 12.611-7.66 18.476l3.823 8.608h273.783c5.327.001 9.662-4.333 9.662-9.662zm-362.017-282.364c-5.685 0-10.323 4.638-10.323 10.323 0 5.686 4.637 10.323 10.323 10.323s10.323-4.637 10.323-10.323c0-5.685-4.637-10.323-10.323-10.323zm39.625 0c-5.686 0-10.323 4.638-10.323 10.323 0 5.686 4.637 10.323 10.323 10.323 5.685 0 10.322-4.637 10.322-10.323 0-5.685-4.637-10.323-10.322-10.323zm39.624 0c-5.685 0-10.323 4.638-10.323 10.323 0 5.686 4.638 10.323 10.323 10.323 5.686 0 10.323-4.637 10.323-10.323 0-5.685-4.637-10.323-10.323-10.323zm157.533 174.956c.693.186 1.39.274 2.075.274 3.532 0 6.765-2.357 7.723-5.932l21.302-79.5c1.144-4.268-1.389-8.654-5.657-9.798-4.264-1.143-8.654 1.389-9.798 5.657l-21.302 79.5c-1.144 4.269 1.389 8.655 5.657 9.799zm-58.647-41.361 34.709 29.249c1.501 1.265 3.331 1.882 5.151 1.882 2.277 0 4.539-.967 6.122-2.845 2.847-3.379 2.416-8.426-.962-11.273l-27.45-23.131 27.45-23.131c3.378-2.847 3.809-7.894.962-11.273-2.848-3.378-7.895-3.81-11.273-.962l-34.709 29.249c-1.804 1.52-2.845 3.759-2.845 6.118s1.041 4.597 2.845 6.117zm142.735-12.235-34.709-29.249c-3.378-2.846-8.425-2.417-11.273.962-2.847 3.379-2.416 8.426.962 11.273l27.45 23.131-27.45 23.131c-3.378 2.847-3.81 7.894-.962 11.273 1.583 1.877 3.844 2.845 6.122 2.845 1.82 0 3.65-.618 5.151-1.882l34.709-29.249c1.804-1.52 2.845-3.759 2.845-6.118s-1.041-4.597-2.845-6.117zm-178.494-33.632c0-4.418-3.582-8-8-8h-136.722c-4.418 0-8 3.582-8 8s3.582 8 8 8h136.722c4.418 0 8-3.582 8-8zm173.339 160.481h-182.886c-4.418 0-8 3.582-8 8s3.582 8 8 8h182.885c4.418 0 8-3.582 8-8s-3.581-8-7.999-8zm0-56.16h-198.009c-4.418 0-8 3.582-8 8s3.582 8 8 8h198.009c4.418 0 8-3.582 8-8s-3.582-8-8-8zm-173.339-48.161c0-4.418-3.582-8-8-8h-76.72c-4.418 0-8 3.582-8 8s3.582 8 8 8h76.72c4.418 0 8-3.581 8-8zm-93.418 95.953c0 29.386-23.907 53.293-53.293 53.293s-53.293-23.907-53.293-53.293 23.907-53.293 53.293-53.293 53.293 23.907 53.293 53.293zm-16 0c0-20.563-16.729-37.293-37.293-37.293s-37.293 16.73-37.293 37.293 16.73 37.293 37.293 37.293 37.293-16.729 37.293-37.293z"/></svg>