<svg enable-background="new 0 0 100 100" viewBox="0 0 100 100" xmlns="http://www.w3.org/2000/svg"><g id="Layer_1"/><g id="Layer_2"><g><path d="m96.106 48.881c-.77 0-1.394.626-1.394 1.399 0 21.747-15.13 40.061-36.21 44.154v-29.347h9.376c.688 0 1.273-.504 1.378-1.187l2.049-13.408c.144-.82-.548-1.631-1.378-1.611h-11.425v-7.301c.033-7.334 6.8-5.65 11.967-5.844.77 0 1.394-.626 1.394-1.399v-11.415c0-.682-.49-1.264-1.16-1.379-10.045-1.739-23.925-2.366-28.31 10.912-.535 1.77 2.047 2.602 2.648.872 3.489-10.805 14.71-10.674 24.034-9.203v8.814h-4.434c-5.589 0-8.926 3.231-8.926 8.642v8.7c0 .773.624 1.399 1.394 1.399h11.194l-1.621 10.61h-9.573c-.77 0-1.394.626-1.394 1.399v32.411c0 .409.178.797.488 1.063 23.524-1.523 41.39-23.436 41.297-46.881 0-.774-.625-1.4-1.394-1.4z"/><path d="m42.665 38.663c-.77 0-1.394.626-1.394 1.399v8.819h-10.342c-.77 0-1.394.626-1.394 1.399v13.408c0 .773.624 1.399 1.394 1.399h10.341v29.347c-52.824-11.582-45.474-87.735 8.616-89.136 21.636 0 40.176 15.473 44.084 36.791.14.76.864 1.263 1.624 1.122.757-.14 1.258-.869 1.119-1.629-4.152-22.645-23.846-39.082-46.827-39.082-58.451 1.627-65.011 84.401-7.437 94.981.815.145 1.63-.545 1.609-1.382v-32.411c0-.773-.624-1.399-1.394-1.399h-10.341v-10.61h10.341c.77 0 1.394-.626 1.394-1.399v-10.218c.001-.773-.624-1.399-1.393-1.399z"/></g></g></svg>