<svg enable-background="new 0 0 100 100" viewBox="0 0 100 100" xmlns="http://www.w3.org/2000/svg"><g id="Layer_1"/><g id="Layer_2"><g><path d="m97.214 30.954c-.361-16.896-11.265-27.809-28.166-28.169-4.018-.377-34.075-.383-38.096 0-16.894.363-27.807 11.265-28.167 28.169-.377 4.013-.384 34.082 0 38.099.332 16.854 11.31 27.841 28.167 28.168 4.938.226 6.579.279 19.048.279 12.47 0 14.11-.053 19.048-.279 4.607-.209 8.195-.899 11.636-2.236 10.798-4.147 16.29-14.362 16.53-25.932.378-4.012.385-34.085 0-38.099zm-2.904 37.966c-.292 15.376-10.011 25.109-25.395 25.396-3.924.373-33.904.379-37.831 0-15.375-.291-25.106-10.01-25.394-25.396-.223-4.887-.276-6.512-.276-18.917.35-19.721-2.294-34.648 14.955-42.271 3.132-1.217 6.437-1.847 10.715-2.043 4.887-.222 6.513-.274 18.916-.274s14.029.052 18.916.275c4.278.195 7.583.825 10.716 2.043 17.227 7.592 14.613 22.57 14.954 42.27-.001 12.406-.054 14.032-.276 18.917z"/><path d="m74.59 31.958c3.584 0 6.5-2.927 6.5-6.525-.305-8.635-12.696-8.633-13 0 0 3.598 2.917 6.525 6.5 6.525zm0-10.33c5.011.16 5.01 7.453 0 7.612-5.011-.16-5.009-7.453 0-7.612z"/><g><g><path d="m87.606 67.175c-.828-.033-1.482.585-1.518 1.386-.561 11.685-5.765 16.946-17.485 17.487-3.743.363-33.33.366-37.075 0-16.809-.455-18.153-12.159-17.549-26.548.027-4.018.099-14.328.065-19.687-.008-1.88-2.884-1.932-2.908 0 .05 5.377-.032 15.633-.065 19.657-.189 6.026-.046 14.351 1.75 18.232 6.183 14.108 19.607 10.977 37.245 11.52 21.597-.243 37.34 2.487 38.928-20.529.034-.802-.587-1.482-1.388-1.518z"/><path d="m87.11 22.341c-6-13.992-19.782-11.042-37.245-11.519-21.251-.008-37.829-1.932-38.928 20.53-.036 1.915 2.772 2.042 2.905.132.561-11.685 5.764-16.947 17.485-17.487 3.771-.365 33.301-.367 37.076 0 11.718.528 16.924 5.812 17.486 17.487.264 3.085.413 19.151-.001 27.415-.035 1.885 2.805 2.025 2.906.087 0 0 .27-8.963.27-8.963 0-12.316-.047-13.781-.271-18.671-.214-4.705-1.012-7.288-1.683-9.011z"/></g><g><path d="m25 50c0 13.785 11.244 25 25.065 25 33.252-1.374 33.242-48.631 0-50-13.821 0-25.065 11.215-25.065 25zm47.225 0c0 12.187-9.941 22.103-22.16 22.103-29.4-1.215-29.391-42.997 0-44.207 12.219.001 22.16 9.917 22.16 22.104z"/><path d="m50.043 66.5c21.946-.907 21.94-32.097 0-33-9.122 0-16.543 7.402-16.543 16.5s7.421 16.5 16.543 16.5zm0-30.144c7.543 0 13.679 6.121 13.679 13.644s-6.136 13.645-13.679 13.645c-18.148-.751-18.143-26.542 0-27.289z"/></g></g></g></g></svg>