<svg enable-background="new 0 0 100 100" viewBox="0 0 100 100" xmlns="http://www.w3.org/2000/svg"><g id="Layer_1"/><g id="Layer_2"><g><path d="m89.239 2.5h-69.311c-.803 0-1.454.651-1.454 1.454s.651 1.454 1.454 1.454h69.312c2.952 0 5.352 2.307 5.352 5.143v78.9c0 2.835-2.401 5.141-5.352 5.141h-78.48c-2.951 0-5.352-2.306-5.352-5.14v-78.9c0-2.836 2.401-5.143 5.352-5.143 1.921-.024 1.899-2.886 0-2.908-4.555 0-8.26 3.611-8.26 8.05v78.901c0 4.438 3.705 8.049 8.26 8.049h78.479c4.555 0 8.261-3.611 8.261-8.05v-78.9c0-4.439-3.705-8.051-8.261-8.051z"/><path d="m31.94 64.499c.803 0 1.454-.651 1.454-1.454v-23.482c0-.803-.651-1.454-1.454-1.454h-13.781c-.803 0-1.454.651-1.454 1.454v41.46c0 .803.651 1.454 1.454 1.454h13.782c.803 0 1.454-.651 1.454-1.454v-10.53c0-.803-.651-1.454-1.454-1.454s-1.454.651-1.454 1.454v9.076h-10.874v-38.552h10.872v22.028c.001.803.652 1.454 1.455 1.454z"/><path d="m38.537 82.05c.273.274.644.428 1.03.428l13.78-.002c.803 0 1.454-.651 1.454-1.454v-23.15c-.166-2.975 1.512-6.792 6.071-6.949 1.367 0 5.527 0 5.527 7.921v22.178c0 .803.651 1.454 1.454 1.454h13.779c.803 0 1.454-.651 1.454-1.454v-23.771c0-12.594-6.474-20.114-17.317-20.114-5.273 0-8.682 1.939-10.993 4.204l.027-1.755c.028-.787-.665-1.493-1.454-1.476h-13.78c-.805-.015-1.507.715-1.453 1.521.176 3.808-.001 41.011-.003 41.386-.002.387.151.759.424 1.033zm2.521-41.032h10.814l-.069 4.535c-.064 1.425 1.946 2.027 2.678.807 1.885-2.94 4.871-6.315 11.288-6.315 9.157 0 14.409 6.271 14.409 17.206v22.318h-10.871v-20.724c.318-13.833-13.646-13.352-16.852-4.888-1.144 2.03-.333 22.922-.563 25.611 0 0-10.865.002-10.865.002.03-6.429.134-31.494.031-38.552z"/><path d="m25.144 18.122c-5.361 0-9.251 3.624-9.251 8.618.031 11.56 18.397 11.385 18.409-.032-.112-5.055-3.878-8.586-9.158-8.586zm-.092 14.327c-3.647.046-6.26-2.315-6.251-5.708-.142-7.543 12.656-7.685 12.593.001 0 3.413-2.548 5.707-6.342 5.707z"/></g></g></svg>