<svg enable-background="new 0 0 100 100" viewBox="0 0 100 100" xmlns="http://www.w3.org/2000/svg"><g id="Layer_1"/><g id="Layer_2"><g><path d="m77.964 21.851c-13.417-13.903-36.807-15.394-51.875-3.299-1.425 1.134.26 3.277 1.694 2.185 23.859-18.569 59.01-1.301 58.925 28.933-.008 20.158-16.412 36.557-36.582 36.557-7.121.024-14.034-2.125-19.999-5.918-.318-.188-.7-.24-1.055-.148l-12.047 3.159s3.202-11.689 3.202-11.689c.102-.374.043-.774-.163-1.102-9.668-13.701-8.366-33.598 3.301-45.752 1.215-1.325-.762-3.206-2.026-1.883-6.788 7.3-10.529 16.798-10.533 26.745-.017 7.8 2.314 15.374 6.594 21.847 0 0-3.674 13.413-3.674 13.413-.3.981.692 2.001 1.684 1.703 0 0 13.806-3.62 13.806-3.62 39.818 24.11 81.077-27.656 48.748-61.131z"/><path d="m83.418 16.402c-38.935-37.844-100.237 8.494-74.329 56.241-.001 0-6.327 23.101-6.327 23.101-.3.982.696 2 1.684 1.703 0 0 23.68-6.21 23.68-6.21 47.522 24.655 92.781-36.594 55.292-74.835zm-33.297 77.535c-7.382-.003-14.699-1.866-21.158-5.389-.31-.168-.672-.211-1.013-.123l-21.889 5.74 5.845-21.342c.098-.356.049-.737-.136-1.057-17.069-28.996 4.681-66.684 38.37-66.39 23.813-.481 44.778 20.485 44.277 44.298-.01 24.406-19.872 44.263-44.296 44.263z"/><path d="m41.689 44.499c.816-.897 1.467-1.881 1.888-2.859.761-1.524.117-2.812-.094-3.234-.792-1.843-2.71-6.71-3.496-8.423-1.112-2.469-2.529-2.73-3.767-2.781-2.361.015-4.073-.533-6.518 2.075-1.24 1.323-4.145 4.42-4.145 10.222.061 5.74 3.481 10.629 5.14 12.929 5.652 8.378 12.714 14.55 19.883 17.378 6.625 2.612 9.798 3.144 11.849 3.143.986-.002 1.634-.114 2.474-.198 1.301-.118 3.18-.884 4.904-1.999.642-.415.825-1.271.41-1.912-.416-.643-1.272-.823-1.912-.41-1.976 1.209-2.962 1.537-4.295 1.637-1.793.212-4.028.474-12.416-2.833-6.753-2.625-13.608-8.791-18.901-16.779-3.971-5.15-6.912-13.446-.974-19.285 1.515-1.74 2.758-1.136 4.385-1.204.607.025.859.036 1.363 1.157.693 1.501 2.896 7.071 3.542 8.52.308.622.11.678-.068 1.092-.55 1.199-1.613 2.276-2.426 3.207-.529.526-1.936 1.923-.721 4.005.853 1.462 3.204 5.19 6.621 8.235 3.812 3.399 7.174 4.858 8.789 5.559 1.248.46 2.761 1.801 4.819-.304.573-.655 2.882-3.355 3.721-4.616.25-.41.31-.23.945-.038 1.477.586 7.063 3.353 9.218 4.421.068.54.014 2.193-.732 4.281-.591 1.702 1.962 2.642 2.605.929.957-2.683 1.194-5.519.548-6.601-.506-.889-1.721-1.333-2.755-1.856-.066-.033-6.663-3.309-7.941-3.773-.901-.329-2.781-1.015-4.191 1.104-.695 1.042-2.81 3.537-3.503 4.329-.266.289-.197.215-.811-.04-2.424-1.122-4.818-1.92-8.874-5.459-3.121-2.783-5.287-6.217-6.073-7.565-.077-.132-.098-.207-.107-.212.502-.595 1.091-1.155 1.616-1.842z"/></g></g></svg>