<svg version="1.1" id="Layer_1" xmlns="http://www.w3.org/2000/svg" xmlns:xlink="http://www.w3.org/1999/xlink" x="0px" y="0px" viewBox="0 0 512 512" style="enable-background:new 0 0 512 512;" xml:space="preserve" width="300" height="300" xmlns:svgjs="http://svgjs.dev/svgjs"><g width="100%" height="100%" transform="matrix(1,0,0,1,0,0)"><path style="" d="M256,508C117.048,508,4,394.952,4,256S117.048,4,256,4s252,113.048,252,252S394.952,508,256,508z" fill="#ffffff" fill-opacity="0" data-original-color="#ffffffff" stroke="none" stroke-opacity="1"/><path style="" d="M256,8c136.744,0,248,111.256,248,248S392.744,504,256,504S8,392.744,8,256S119.256,8,256,8 M256,0&#10;&#9;C114.616,0,0,114.616,0,256s114.616,256,256,256s256-114.616,256-256S397.384,0,256,0L256,0z" fill="#000000" fill-opacity="1" data-original-color="#e21b1bff" stroke="none" stroke-opacity="1"/><path d="M354.376,371.536c-5.12,0-10.232-1.952-14.144-5.856L146.408,171.848c-7.816-7.816-7.816-20.472,0-28.28&#10;&#9;s20.472-7.816,28.28,0L368.52,337.4c7.816,7.816,7.816,20.472,0,28.28C364.608,369.584,359.496,371.536,354.376,371.536z" fill="#000000" fill-opacity="1" data-original-color="#000000ff" stroke="none" stroke-opacity="1"/><path d="M160.544,371.536c-5.12,0-10.232-1.952-14.144-5.856c-7.816-7.816-7.816-20.472,0-28.28l193.832-193.832&#10;&#9;c7.816-7.816,20.472-7.816,28.28,0s7.816,20.472,0,28.28L174.688,365.68C170.784,369.584,165.664,371.536,160.544,371.536z" fill="#000000" fill-opacity="1" data-original-color="#000000ff" stroke="none" stroke-opacity="1"/><g>
</g><g>
</g><g>
</g><g>
</g><g>
</g><g>
</g><g>
</g><g>
</g><g>
</g><g>
</g><g>
</g><g>
</g><g>
</g><g>
</g><g>
</g></g></svg>